<?xml version="1.0" encoding="UTF-8" standalone="no"?>
<svg
   xmlns:dc="http://purl.org/dc/elements/1.1/"
   xmlns:cc="http://creativecommons.org/ns#"
   xmlns:rdf="http://www.w3.org/1999/02/22-rdf-syntax-ns#"
   xmlns:svg="http://www.w3.org/2000/svg"
   xmlns="http://www.w3.org/2000/svg"
   xmlns:sodipodi="http://sodipodi.sourceforge.net/DTD/sodipodi-0.dtd"
   xmlns:inkscape="http://www.inkscape.org/namespaces/inkscape"
   id="Icons"
   height="208.53622"
   viewBox="0 0 70.000001 30.140001"
   width="484.32434"
   version="1.1"
   sodipodi:docname="enter.svg"
   inkscape:version="1.0.1 (0767f8302a, 2020-10-17)">
  <metadata
     id="metadata17">
    <rdf:RDF>
      <cc:Work
         rdf:about="">
        <dc:format>image/svg+xml</dc:format>
        <dc:type
           rdf:resource="http://purl.org/dc/dcmitype/StillImage" />
        <dc:title></dc:title>
      </cc:Work>
    </rdf:RDF>
  </metadata>
  <defs
     id="defs15">
    <inkscape:path-effect
       effect="fillet_chamfer"
       id="path-effect878"
       is_visible="true"
       lpeversion="1"
       satellites_param="F,1,0,1,0,0.25,0,1 @ F,1,0,1,0,0.25,0,1 @ F,1,0,1,0,0.25,0,1 @ F,1,0,1,0,0.25,0,1 @ F,1,0,1,0,0.25,0,1 @ F,1,0,1,0,0.25,0,1 @ F,1,0,1,0,0.25,0,1 @ F,1,0,1,0,0.25,0,1 @ F,1,0,1,0,0.25,0,1 @ F,1,0,1,0,0.25,0,1 @ F,1,0,1,0,0.25,0,1 @ F,1,0,1,0,0.25,0,1 @ F,1,0,1,0,0.25,0,1 @ F,1,0,1,0,0.25,0,1"
       unit="px"
       method="auto"
       mode="F"
       radius="25"
       chamfer_steps="1"
       flexible="true"
       use_knot_distance="true"
       apply_no_radius="true"
       apply_with_radius="true"
       only_selected="false"
       hide_knots="false" />
    <inkscape:path-effect
       effect="fillet_chamfer"
       id="path-effect876"
       is_visible="true"
       lpeversion="1"
       satellites_param="F,1,0,1,0,0.25,0,1 @ F,1,0,1,0,0.25,0,1 @ F,1,0,1,0,0.25,0,1 @ F,1,0,1,0,0.25,0,1 @ F,1,0,1,0,0.25,0,1 @ F,1,0,1,0,0.25,0,1 @ F,1,0,1,0,0.25,0,1 @ F,1,0,1,0,0.25,0,1 @ F,1,0,1,0,0.25,0,1 @ F,1,0,1,0,0.25,0,1 @ F,1,0,1,0,0.25,0,1 @ F,1,0,1,0,0.25,0,1 @ F,1,0,1,0,0.25,0,1 @ F,1,0,1,0,0.25,0,1 @ F,1,0,1,0,0.25,0,1 @ F,1,0,1,0,0.25,0,1 | F,1,0,1,0,0.25,0,1 @ F,1,0,1,0,0.25,0,1 @ F,1,0,1,0,0.25,0,1 @ F,1,0,1,0,0.25,0,1 @ F,1,0,1,0,0.25,0,1"
       unit="px"
       method="auto"
       mode="F"
       radius="25"
       chamfer_steps="1"
       flexible="true"
       use_knot_distance="true"
       apply_no_radius="true"
       apply_with_radius="true"
       only_selected="false"
       hide_knots="false" />
    <inkscape:path-effect
       effect="fillet_chamfer"
       id="path-effect874"
       is_visible="true"
       lpeversion="1"
       satellites_param="F,1,0,1,0,0.25,0,1 @ F,1,0,1,0,0.25,0,1 @ F,1,0,1,0,0.25,0,1 @ F,1,0,1,0,0.25,0,1 @ F,1,0,1,0,0.25,0,1 @ F,1,0,1,0,0.25,0,1 @ F,1,0,1,0,0.25,0,1 @ F,1,0,1,0,0.25,0,1 @ F,1,0,1,0,0.25,0,1 @ F,1,0,1,0,0.25,0,1 @ F,1,0,1,0,0.25,0,1 @ F,1,0,1,0,0.25,0,1 @ F,1,0,1,0,0.25,0,1 @ F,1,0,1,0,0.25,0,1 @ F,1,0,1,0,0.25,0,1 @ F,1,0,1,0,0.25,0,1 @ F,1,0,1,0,0.25,0,1 @ F,1,0,1,0,0.25,0,1"
       unit="px"
       method="auto"
       mode="F"
       radius="25"
       chamfer_steps="1"
       flexible="true"
       use_knot_distance="true"
       apply_no_radius="true"
       apply_with_radius="true"
       only_selected="false"
       hide_knots="false" />
    <inkscape:path-effect
       effect="fillet_chamfer"
       id="path-effect872"
       is_visible="true"
       lpeversion="1"
       satellites_param="F,1,0,1,0,0.25,0,1 @ F,1,0,1,0,0.25,0,1 @ F,1,0,1,0,0.25,0,1 @ F,1,0,1,0,0.25,0,1 @ F,1,0,1,0,0.25,0,1 @ F,1,0,1,0,0.25,0,1 @ F,1,0,1,0,0.25,0,1 @ F,1,0,1,0,0.25,0,1 @ F,1,0,1,0,0.25,0,1 @ F,1,0,1,0,0.25,0,1 @ F,1,0,1,0,0.25,0,1 @ F,1,0,1,0,0.25,0,1 @ F,1,0,1,0,0.25,0,1 @ F,1,0,1,0,0.25,0,1 @ F,1,0,1,0,0.25,0,1 @ F,1,0,1,0,0.25,0,1"
       unit="px"
       method="auto"
       mode="F"
       radius="25"
       chamfer_steps="1"
       flexible="true"
       use_knot_distance="true"
       apply_no_radius="true"
       apply_with_radius="true"
       only_selected="false"
       hide_knots="false" />
    <inkscape:path-effect
       effect="fillet_chamfer"
       id="path-effect870"
       is_visible="true"
       lpeversion="1"
       satellites_param="F,1,0,1,0,0.25,0,1 @ F,1,0,1,0,0.25,0,1 @ F,1,0,1,0,0.25,0,1 @ F,1,0,1,0,0.25,0,1 @ F,1,0,1,0,0.25,0,1 @ F,1,0,1,0,0.25,0,1 @ F,1,0,1,0,0.25,0,1 @ F,1,0,1,0,0.25,0,1 @ F,1,0,1,0,0.25,0,1 @ F,1,0,1,0,0.25,0,1 @ F,1,0,1,0,0.25,0,1 @ F,1,0,1,0,0.25,0,1"
       unit="px"
       method="auto"
       mode="F"
       radius="25"
       chamfer_steps="1"
       flexible="true"
       use_knot_distance="true"
       apply_no_radius="true"
       apply_with_radius="true"
       only_selected="false"
       hide_knots="false" />
  </defs>
  <sodipodi:namedview
     pagecolor="#ffffff"
     bordercolor="#666666"
     borderopacity="1"
     objecttolerance="10"
     gridtolerance="10"
     guidetolerance="10"
     inkscape:pageopacity="0"
     inkscape:pageshadow="2"
     inkscape:window-width="1920"
     inkscape:window-height="1009"
     id="namedview13"
     showgrid="false"
     inkscape:zoom="1.6445313"
     inkscape:cx="114.77199"
     inkscape:cy="29.548491"
     inkscape:window-x="0"
     inkscape:window-y="34"
     inkscape:window-maximized="1"
     inkscape:current-layer="Icons"
     inkscape:document-rotation="0"
     fit-margin-top="0"
     fit-margin-left="0"
     fit-margin-right="0"
     fit-margin-bottom="0" />
  <path
     d="m 69,13.935 a 1,1 0 0 1 -1,-1 v -2.91 a 1,1 0 0 1 2,0 v 2.91 a 1,1 0 0 1 -1,1 z"
     id="path2"
     style="fill:#d38d5f" />
  <path
     d="M 67,30.14 H 3 c -1.656854,0 -3,-1.343146 -3,-3 V 3 C 0,1.343146 1.343146,0 3,0 c 25.356816,0 38.752082,0.0094 64,0.0094 1.656854,0 3,1.343145 3,3 v 11.469375 c 0,1.333333 -2,1.333333 -2,0 V 3.009372 c 0,-0.552285 -0.447715,-1 -1,-1 -11.047713,0 -29.801059,-0.0094 -36.73,-0.0094 H 3 c -0.552285,0 -1,0.447715 -1,1 V 27.14 c 0,0.552285 0.447715,1 1,1 h 64 c 0.552285,0 1,-0.447715 1,-1 v -3.01625 c 0,-1.333333 2,-1.333333 2,0 V 27.14 c 0,1.656854 -1.343146,3 -3,3 z"
     id="path4"
     style="fill:#d38d5f"
     sodipodi:nodetypes="ssssccssssccssssssssss" />
  <path
     d="m 69,21.014375 a 1,1 0 0 1 -1,-1 v -2.97 a 1,1 0 0 1 2,0 v 2.97 a 1,1 0 0 1 -1,1 z"
     id="path6"
     style="fill:#d38d5f" />
  <g
     id="g840"
     transform="translate(3.741587,-40.123489)">
    <path
       d="m 59.671875,57.322 h -19.5315 c -1.333333,0 -1.333333,-2 0,-2 h 18.5315 v -7.306375 c 0,-1.333333 2,-1.333333 2,0 V 56.322 c 0,0.552285 -0.447715,1 -1,1 z"
       id="path8"
       style="fill:#d38d5f"
       sodipodi:nodetypes="ssscssss" />
    <path
       d="m 45.817375,63 c -0.265195,-5.7e-5 -0.519507,-0.105451 -0.707,-0.293 l -5.676,-5.678 c -0.390382,-0.3905 -0.390382,-1.0235 0,-1.414 l 5.677,-5.677 c 0.942666,-0.943333 2.357666,0.470667 1.415,1.414 l -4.971,4.97 4.971,4.971 c 0.63043,0.630618 0.182694,1.708594 -0.709,1.707 z"
       id="path10"
       style="fill:#d38d5f"
       sodipodi:nodetypes="ccccccccc" />
  </g>
  <g
     aria-label="Enter"
     id="text844"
     style="font-style:normal;font-weight:normal;font-size:5.78125px;line-height:1.25;font-family:sans-serif;fill:#d38d5f;fill-opacity:1;stroke:none;stroke-width:0.144531;stroke-miterlimit:4;stroke-dasharray:none"
     transform="matrix(2.3929821,0,0,2.3929821,-15.063449,-99.30083)">
    <path
       d="m 9.3370399,45.630413 h 1.8786241 a 0.11997225,0.11997225 45 0 1 0.119972,0.119972 0.44930086,0.44930086 145.49802 0 1 -0.523643,0.359917 H 9.55299 A 0.31192775,0.31192775 135 0 0 9.2410622,46.42223 v 0.434017 a 0.5017662,0.5017662 45 0 0 0.5017662,0.501766 h 1.3853266 a 0.11997225,0.11997225 45 0 1 0.119972,0.119972 0.43664023,0.43664023 144.34814 0 1 -0.501766,0.359917 H 9.6228562 a 0.381794,0.381794 135 0 0 -0.381794,0.381794 v 0.609036 a 0.53634645,0.53634645 45 0 0 0.5363465,0.536346 h 1.4890673 a 0.11997225,0.11997225 45 0 1 0.119972,0.119972 0.543345,0.543345 152.0699 0 1 -0.678902,0.359917 H 9.7244797 A 1.0536385,1.0536385 45 0 1 8.6708412,48.791328 v -2.494716 a 0.6661987,0.6661987 135 0 1 0.6661987,-0.666199 z"
       style="fill:#d38d5f;fill-opacity:1;stroke-width:0.144531;stroke-miterlimit:4;stroke-dasharray:none"
       id="path857"
       inkscape:path-effect="#path-effect870"
       inkscape:original-d="m 8.6708412,45.630413 h 2.6647948 v 0.479889 H 9.2410622 v 1.247711 h 2.0070648 v 0.479889 H 9.2410622 v 1.527176 h 2.1453858 v 0.479889 H 8.6708412 Z" />
    <path
       d="m 14.934803,48.413769 v 1.301346 a 0.12985225,0.12985225 135 0 1 -0.129852,0.129852 0.43319991,0.43319991 50.515563 0 1 -0.389557,-0.472832 v -1.207799 c 0,-0.116364 0.002,-0.305412 -0.01094,-0.421 -0.01499,-0.134388 -0.04537,-0.248908 -0.09115,-0.343561 -0.03335,-0.06896 -0.110564,-0.169053 -0.171377,-0.215545 -0.06456,-0.04936 -0.140556,-0.08415 -0.227981,-0.104378 -0.107474,-0.02487 -0.28913,-0.02368 -0.397815,-0.0043 -0.124034,0.02211 -0.233565,0.06608 -0.328593,0.13193 -0.08204,0.05685 -0.192068,0.179186 -0.241805,0.265743 -0.02619,0.04558 -0.04861,0.09418 -0.06727,0.145802 -0.08343,0.230875 -0.06929,0.639065 -0.06929,0.885782 v 1.209603 a 0.130558,0.130558 135 0 1 -0.130558,0.130558 0.62375836,0.62375836 63.639944 0 1 -0.391674,-0.790405 v -2.240658 a 0.130558,0.130558 135 0 1 0.130558,-0.130558 h 0.268879 a 0.122795,0.122795 45 0 1 0.122795,0.122795 v 0.20312 c 0,0.09127 0.03966,0.102496 0.09721,0.03171 0.06745,-0.08296 0.1403,-0.153948 0.218551,-0.21296 0.06419,-0.04841 0.178627,-0.112438 0.253575,-0.141487 0.06264,-0.02428 0.128277,-0.04299 0.196926,-0.05613 0.139228,-0.02665 0.37184,-0.0268 0.51144,-0.0021 0.156251,0.02765 0.291278,0.0824 0.405083,0.164243 0.100463,0.07225 0.229895,0.230678 0.285639,0.341228 0.04875,0.09668 0.08616,0.206302 0.112234,0.328866 0.05472,0.257238 0.04497,0.687656 0.04497,0.951132 z"
       style="fill:#d38d5f;fill-opacity:1;stroke-width:0.144531;stroke-miterlimit:4;stroke-dasharray:none"
       id="path859"
       inkscape:path-effect="#path-effect872"
       inkscape:original-d="m 14.934803,47.936703 v 1.908264 H 14.415394 V 47.95364 q 0,-0.448837 -0.175018,-0.671844 -0.175019,-0.223008 -0.525055,-0.223008 -0.420609,0 -0.663376,0.268174 -0.242768,0.268173 -0.242768,0.731124 v 1.786881 h -0.522232 v -3.161621 h 0.522232 v 0.49118 q 0.18631,-0.28511 0.437546,-0.426254 0.254059,-0.141144 0.584336,-0.141144 0.544815,0 0.824279,0.338745 0.279465,0.335923 0.279465,0.99083 z" />
    <path
       d="m 16.490208,46.01009 v 0.405788 a 0.2674675,0.2674675 45 0 0 0.267468,0.267468 h 0.701484 a 0.10091775,0.10091775 45 0 1 0.100918,0.100918 v 0.03529 a 0.2674675,0.2674675 135 0 1 -0.267468,0.267468 h -0.373325 a 0.42907725,0.42907725 135 0 0 -0.429077,0.429077 v 1.110985 c 0,0.09734 -0.0014,0.25534 0.0065,0.352324 0.0088,0.107424 0.02663,0.191108 0.05339,0.251051 0.01862,0.04171 0.07108,0.09708 0.11175,0.117863 0.05692,0.02908 0.134071,0.04792 0.231445,0.05652 0.07336,0.0065 0.192952,0.0054 0.266616,0.0054 h 0.291462 a 0.10868075,0.10868075 45 0 1 0.108681,0.108681 v 0.192661 a 0.133381,0.133381 135 0 1 -0.133381,0.133381 l -0.122308,0 c -0.153444,0 -0.402729,0.0028 -0.555182,-0.01394 -0.169365,-0.01858 -0.30768,-0.05575 -0.414947,-0.111495 -0.08268,-0.04297 -0.193395,-0.15144 -0.237667,-0.233425 -0.0386,-0.07148 -0.06851,-0.156901 -0.08973,-0.256267 -0.04941,-0.231318 -0.03888,-0.61862 -0.03888,-0.855593 v -1.19196 a 0.09527225,0.09527225 45 0 0 -0.09527,-0.09527 h -0.184899 a 0.10091775,0.10091775 45 0 1 -0.100918,-0.100918 v -0.207481 a 0.09527225,0.09527225 135 0 1 0.09527,-0.09527 h 0.0614 a 0.22441875,0.22441875 135 0 0 0.224419,-0.224419 l 0,-0.542698 a 0.130558,0.130558 135 0 1 0.130558,-0.130558 l 0.167255,0 a 0.22441875,0.22441875 45 0 1 0.224419,0.224419 z"
       style="fill:#d38d5f;fill-opacity:1;stroke-width:0.144531;stroke-miterlimit:4;stroke-dasharray:none"
       id="path861"
       inkscape:path-effect="#path-effect874"
       inkscape:original-d="m 16.490208,45.785671 v 0.897675 h 1.06987 v 0.403671 h -1.06987 v 1.716309 q 0,0.386734 0.104446,0.496826 0.107269,0.110092 0.4319,0.110092 h 0.533524 v 0.434723 h -0.533524 q -0.601272,0 -0.829925,-0.223007 -0.228653,-0.22583 -0.228653,-0.818634 v -1.716309 h -0.381089 v -0.403671 h 0.381089 v -0.897675 z" />
    <path
       d="m 20.950352,48.197819 a 0.44314884,0.44314884 162.29956 0 1 -0.597038,0.190544 h -1.536488 c -0.140627,0 -0.250158,0.114671 -0.221813,0.252294 0.03259,0.158248 0.08653,0.295153 0.161813,0.410715 0.06059,0.09301 0.191654,0.220532 0.286673,0.277891 0.139267,0.08407 0.305781,0.134419 0.499544,0.151048 0.08168,0.007 0.214857,0.0067 0.296683,0.0016 0.09737,-0.0061 0.193119,-0.01817 0.287245,-0.03629 0.07957,-0.01532 0.206833,-0.04864 0.283859,-0.0738 0.103394,-0.03377 0.206215,-0.075 0.308462,-0.123694 0.06123,-0.02916 0.109676,-2.3e-4 0.109676,0.06759 v 0.217107 c 0,0.08355 -0.06224,0.178104 -0.140615,0.20703 -0.09438,0.03483 -0.189929,0.06496 -0.28666,0.09037 -0.08002,0.02102 -0.211361,0.04884 -0.293088,0.06171 -0.02964,0.0047 -0.05934,0.0089 -0.08911,0.0126 -0.197218,0.02473 -0.52177,0.02664 -0.717879,-0.0052 -0.226513,-0.03677 -0.42681,-0.110382 -0.600892,-0.220838 -0.143385,-0.09098 -0.341524,-0.288428 -0.43281,-0.431599 -0.10818,-0.169666 -0.180927,-0.364318 -0.218239,-0.583956 -0.03412,-0.200852 -0.03361,-0.534226 -0.0034,-0.735739 0.03503,-0.233379 0.105308,-0.439608 0.210832,-0.618688 0.08517,-0.144531 0.271608,-0.348377 0.409319,-0.444124 0.173371,-0.120542 0.373677,-0.198718 0.600919,-0.23453 0.165536,-0.02609 0.439945,-0.0267 0.604801,0.0031 0.188223,0.03397 0.354586,0.101533 0.499088,0.202695 0.125026,0.08753 0.293081,0.274721 0.369476,0.40687 0.139731,0.241706 0.209598,0.538987 0.209599,0.891842 0,6e-6 0,1.1e-5 0,1.2e-5 z m -0.536506,-0.418315 c -0.0212,-0.129384 -0.06196,-0.244046 -0.122268,-0.343985 -0.0478,-0.07921 -0.150316,-0.191729 -0.225845,-0.245114 -0.08369,-0.05915 -0.178397,-0.09994 -0.284122,-0.122367 -0.111846,-0.02372 -0.299564,-0.02291 -0.412599,-0.0052 -0.130481,0.02045 -0.24663,0.06135 -0.348446,0.122687 -0.08435,0.05081 -0.202256,0.161908 -0.258296,0.242876 -0.02421,0.03498 -0.04612,0.07207 -0.06571,0.111268 -0.113647,0.227366 0.08985,0.444699 0.345526,0.444309 l 1.185581,-0.0018 c 0.112265,-1.71e-4 0.204313,-0.09199 0.186177,-0.202675 z"
       style="fill:#d38d5f;fill-opacity:1;stroke-width:0.144531;stroke-miterlimit:4;stroke-dasharray:none"
       id="path863"
       inkscape:path-effect="#path-effect876"
       inkscape:original-d="m 20.950352,48.134304 v 0.254059 h -2.388153 q 0.03387,0.536346 0.321808,0.818634 0.290756,0.279465 0.807342,0.279465 0.299225,0 0.57869,-0.0734 0.282287,-0.07339 0.558929,-0.220184 v 0.49118 q -0.279465,0.118561 -0.573044,0.180664 -0.293579,0.0621 -0.595627,0.0621 -0.75653,0 -1.199722,-0.440368 -0.440369,-0.440369 -0.440369,-1.191254 0,-0.776291 0.417786,-1.230774 0.420609,-0.457306 1.131973,-0.457306 0.63797,0 1.007767,0.41214 0.37262,0.409317 0.37262,1.115036 z m -0.519409,-0.152435 q -0.0056,-0.426255 -0.239945,-0.680313 -0.231476,-0.254059 -0.615387,-0.254059 -0.434723,0 -0.69725,0.24559 -0.259705,0.24559 -0.299225,0.691605 z" />
    <path
       d="m 23.590093,47.145239 c -0.02937,-0.014 -0.06004,-0.02584 -0.09201,-0.03551 -0.0301,-0.0091 -0.07832,-0.0202 -0.107356,-0.02536 -0.09472,-0.01683 -0.267984,-0.0172 -0.381088,0.0037 -0.127472,0.02355 -0.238621,0.07023 -0.333448,0.140031 -0.08383,0.06171 -0.192119,0.195211 -0.239067,0.288164 -0.0377,0.07465 -0.06732,0.157968 -0.08884,0.249963 -0.05227,0.22342 -0.04295,0.599653 -0.04295,0.82961 v 1.118565 A 0.130558,0.130558 135 0 1 22.174774,49.844967 0.62375836,0.62375836 63.639944 0 1 21.7831,49.054562 v -2.240658 a 0.130558,0.130558 135 0 1 0.130558,-0.130558 h 0.268879 a 0.122795,0.122795 45 0 1 0.122795,0.122795 v 0.207427 c 0,0.0889 0.03464,0.09734 0.08804,0.02634 0.06199,-0.08243 0.132007,-0.152705 0.210042,-0.210838 0.06711,-0.04999 0.187883,-0.11393 0.266494,-0.14255 0.137655,-0.05012 0.294291,-0.07651 0.469909,-0.07917 0.01642,-2.49e-4 0.04207,-2.65e-4 0.05726,3.07e-4 0.0175,6.59e-4 0.03581,0.0019 0.05494,0.0038 0.01997,0.002 0.05106,0.0054 0.06945,0.0075 0.06137,0.0069 0.110936,0.07614 0.111326,0.149798 l 0.0018,0.348531 c 1.51e-4,0.02849 -0.01928,0.03999 -0.04454,0.02795 z"
       style="fill:#d38d5f;fill-opacity:1;stroke-width:0.144531;stroke-miterlimit:4;stroke-dasharray:none"
       id="path865"
       inkscape:path-effect="#path-effect878"
       inkscape:original-d="m 23.634907,47.16888 q -0.08751,-0.05081 -0.191956,-0.07339 -0.101623,-0.02541 -0.22583,-0.02541 -0.440369,0 -0.67749,0.287933 -0.234299,0.285111 -0.234299,0.821457 v 1.665497 H 21.7831 v -3.161621 h 0.522232 v 0.49118 q 0.163727,-0.287933 0.426254,-0.426254 0.262528,-0.141144 0.63797,-0.141144 0.05363,0 0.118561,0.0085 0.06493,0.0056 0.143967,0.01976 z" />
  </g>
</svg>
