<svg height="512" viewBox="0 0 128 128" width="512" xmlns="http://www.w3.org/2000/svg"><g id="Layer_2" data-name="Layer 2"><rect fill="#a7adf0" height="58.293" rx="4" width="124.494" x="1.753" y="67.956"/><path d="m11.753 77.956h7.634v8h-7.634z" fill="#d7fc7e"/><path d="m25.59 77.956h7.634v8h-7.634z" fill="#d7fc7e"/><path d="m39.427 77.956h7.634v8h-7.634z" fill="#d7fc7e"/><path d="m53.264 77.956h7.634v8h-7.634z" fill="#d7fc7e"/><path d="m67.101 77.956h7.634v8h-7.634z" fill="#d7fc7e"/><path d="m80.938 77.956h7.634v8h-7.634z" fill="#d7fc7e"/><path d="m94.776 77.956h7.634v8h-7.634z" fill="#d7fc7e"/><path d="m108.613 77.956h7.634v8h-7.634z" fill="#d7fc7e"/><path d="m11.753 93.103h21.471v8h-21.471z" fill="#d7fc7e"/><path d="m39.427 93.103h7.634v8h-7.634z" fill="#d7fc7e"/><path d="m53.264 93.103h7.634v8h-7.634z" fill="#d7fc7e"/><path d="m67.101 93.103h7.634v8h-7.634z" fill="#d7fc7e"/><path d="m80.938 93.103h7.634v8h-7.634z" fill="#d7fc7e"/><path d="m94.776 93.103h21.471v8h-21.471z" fill="#d7fc7e"/><path d="m11.753 108.249h7.634v8h-7.634z" fill="#d7fc7e"/><path d="m25.59 108.249h7.634v8h-7.634z" fill="#d7fc7e"/><path d="m39.427 108.249h49.146v8h-49.146z" fill="#d7fc7e"/><path d="m94.776 108.249h7.634v8h-7.634z" fill="#d7fc7e"/><path d="m108.613 108.249h7.634v8h-7.634z" fill="#d7fc7e"/><path d="m68 58.823h-8v-8.506a12.681 12.681 0 0 1 12.67-12.667h21.073a4.667 4.667 0 1 0 0-9.333h-48.907a12.68 12.68 0 0 1 -12.666-12.667v-13.899h8v13.9a4.671 4.671 0 0 0 4.666 4.667h48.907a12.667 12.667 0 1 1 0 25.333h-21.073a4.673 4.673 0 0 0 -4.67 4.666z" fill="#fff5cc"/><path d="m50.065 58.823h27.875v9.133h-27.875z" fill="#ffe477"/><g fill="#231f20"><path d="m122.247 66.207h-42.557v-7.384a1.75 1.75 0 0 0 -1.75-1.75h-8.187v-6.756a2.921 2.921 0 0 1 2.917-2.917h21.073a14.417 14.417 0 1 0 0-28.833h-48.907a2.92 2.92 0 0 1 -2.916-2.917v-13.899a1.75 1.75 0 0 0 -1.75-1.751h-8a1.75 1.75 0 0 0 -1.75 1.75v13.9a14.433 14.433 0 0 0 14.416 14.417h5.229a1.75 1.75 0 0 0 0-3.5h-5.229a10.928 10.928 0 0 1 -10.916-10.917v-12.15h4.5v12.15a6.423 6.423 0 0 0 6.416 6.417h48.907a10.917 10.917 0 1 1 0 21.833h-21.073a6.425 6.425 0 0 0 -6.417 6.417v6.756h-4.5v-6.756a10.93 10.93 0 0 1 10.917-10.917h21.073a6.417 6.417 0 1 0 0-12.833h-10.868a1.75 1.75 0 0 0 0 3.5h10.868a2.917 2.917 0 1 1 0 5.833h-21.073a14.434 14.434 0 0 0 -14.417 14.417v6.756h-8.188a1.751 1.751 0 0 0 -1.75 1.75v7.384h-42.562a5.756 5.756 0 0 0 -5.753 5.75v50.292a5.757 5.757 0 0 0 5.753 5.751h115.247a1.75 1.75 0 0 0 0-3.5h-115.247a2.253 2.253 0 0 1 -2.25-2.25v-50.293a2.253 2.253 0 0 1 2.25-2.25h116.494a2.253 2.253 0 0 1 2.25 2.25v48.293a1.75 1.75 0 0 0 3.5 0v-48.293a5.756 5.756 0 0 0 -5.75-5.75zm-70.432 0v-5.634h24.375v5.634z"/><path d="m11.753 87.707h7.634a1.75 1.75 0 0 0 1.75-1.75v-8a1.749 1.749 0 0 0 -1.75-1.75h-7.634a1.749 1.749 0 0 0 -1.753 1.75v8a1.75 1.75 0 0 0 1.753 1.75zm1.75-8h4.134v4.5h-4.137z"/><path d="m34.975 77.957a1.75 1.75 0 0 0 -1.75-1.75h-7.635a1.749 1.749 0 0 0 -1.75 1.75v8a1.75 1.75 0 0 0 1.75 1.75h7.635a1.751 1.751 0 0 0 1.75-1.75zm-3.5 6.25h-4.135v-4.5h4.135z"/><path d="m39.427 87.707h7.635a1.751 1.751 0 0 0 1.75-1.75v-8a1.75 1.75 0 0 0 -1.75-1.75h-7.635a1.749 1.749 0 0 0 -1.75 1.75v8a1.75 1.75 0 0 0 1.75 1.75zm1.75-8h4.135v4.5h-4.135z"/><path d="m53.265 87.707h7.635a1.75 1.75 0 0 0 1.75-1.75v-8a1.749 1.749 0 0 0 -1.75-1.75h-7.635a1.749 1.749 0 0 0 -1.75 1.75v8a1.75 1.75 0 0 0 1.75 1.75zm1.75-8h4.133v4.5h-4.133z"/><path d="m67.1 87.707h7.633a1.75 1.75 0 0 0 1.75-1.75v-8a1.749 1.749 0 0 0 -1.75-1.75h-7.633a1.749 1.749 0 0 0 -1.75 1.75v8a1.75 1.75 0 0 0 1.75 1.75zm1.75-8h4.133v4.5h-4.131z"/><path d="m90.323 77.957a1.749 1.749 0 0 0 -1.75-1.75h-7.635a1.75 1.75 0 0 0 -1.75 1.75v8a1.751 1.751 0 0 0 1.75 1.75h7.635a1.75 1.75 0 0 0 1.75-1.75zm-3.5 6.25h-4.135v-4.5h4.135z"/><path d="m94.775 87.707h7.635a1.75 1.75 0 0 0 1.75-1.75v-8a1.749 1.749 0 0 0 -1.75-1.75h-7.635a1.75 1.75 0 0 0 -1.75 1.75v8a1.751 1.751 0 0 0 1.75 1.75zm1.75-8h4.135v4.5h-4.135z"/><path d="m118 77.957a1.749 1.749 0 0 0 -1.75-1.75h-7.635a1.75 1.75 0 0 0 -1.75 1.75v8a1.751 1.751 0 0 0 1.75 1.75h7.635a1.75 1.75 0 0 0 1.75-1.75zm-3.5 6.25h-4.135v-4.5h4.135z"/><path d="m34.975 93.1a1.751 1.751 0 0 0 -1.75-1.75h-21.472a1.75 1.75 0 0 0 -1.753 1.75v8a1.75 1.75 0 0 0 1.75 1.75h21.475a1.751 1.751 0 0 0 1.75-1.75zm-3.5 6.25h-17.975v-4.5h17.975z"/><path d="m37.677 101.1a1.75 1.75 0 0 0 1.75 1.75h7.635a1.751 1.751 0 0 0 1.75-1.75v-8a1.751 1.751 0 0 0 -1.75-1.75h-7.635a1.75 1.75 0 0 0 -1.75 1.75zm3.5-6.25h4.135v4.5h-4.135z"/><path d="m51.515 101.1a1.75 1.75 0 0 0 1.75 1.75h7.635a1.75 1.75 0 0 0 1.75-1.75v-8a1.75 1.75 0 0 0 -1.75-1.75h-7.635a1.75 1.75 0 0 0 -1.75 1.75zm3.5-6.25h4.133v4.5h-4.133z"/><path d="m65.352 101.1a1.75 1.75 0 0 0 1.75 1.75h7.633a1.75 1.75 0 0 0 1.75-1.75v-8a1.75 1.75 0 0 0 -1.75-1.75h-7.635a1.75 1.75 0 0 0 -1.75 1.75zm3.5-6.25h4.133v4.5h-4.133z"/><path d="m90.323 93.1a1.75 1.75 0 0 0 -1.75-1.75h-7.635a1.751 1.751 0 0 0 -1.75 1.75v8a1.751 1.751 0 0 0 1.75 1.75h7.635a1.75 1.75 0 0 0 1.75-1.75zm-3.5 6.25h-4.135v-4.5h4.135z"/><path d="m118 93.1a1.75 1.75 0 0 0 -1.75-1.75h-21.475a1.751 1.751 0 0 0 -1.75 1.75v8a1.751 1.751 0 0 0 1.75 1.75h21.472a1.75 1.75 0 0 0 1.753-1.75zm-3.5 6.25h-17.975v-4.5h17.975z"/><path d="m11.753 106.5a1.749 1.749 0 0 0 -1.753 1.75v8a1.75 1.75 0 0 0 1.75 1.75h7.634a1.75 1.75 0 0 0 1.75-1.75v-8a1.749 1.749 0 0 0 -1.75-1.75zm5.884 8h-4.137v-4.5h4.134z"/><path d="m33.225 106.5h-7.635a1.749 1.749 0 0 0 -1.75 1.75v8a1.75 1.75 0 0 0 1.75 1.75h7.635a1.751 1.751 0 0 0 1.75-1.75v-8a1.75 1.75 0 0 0 -1.75-1.75zm-1.75 8h-4.135v-4.5h4.135z"/><path d="m37.677 116.25a1.75 1.75 0 0 0 1.75 1.75h49.146a1.75 1.75 0 0 0 1.75-1.75v-8a1.749 1.749 0 0 0 -1.75-1.75h-49.146a1.749 1.749 0 0 0 -1.75 1.75zm3.5-6.25h45.646v4.5h-45.646z"/><path d="m94.775 106.5a1.75 1.75 0 0 0 -1.75 1.75v8a1.751 1.751 0 0 0 1.75 1.75h7.635a1.75 1.75 0 0 0 1.75-1.75v-8a1.749 1.749 0 0 0 -1.75-1.75zm5.885 8h-4.135v-4.5h4.135z"/><path d="m116.247 106.5h-7.635a1.75 1.75 0 0 0 -1.75 1.75v8a1.751 1.751 0 0 0 1.75 1.75h7.635a1.75 1.75 0 0 0 1.75-1.75v-8a1.749 1.749 0 0 0 -1.75-1.75zm-1.75 8h-4.135v-4.5h4.138z"/><path d="m70.125 30.067a1.75 1.75 0 0 0 0-3.5h-7.31a1.75 1.75 0 0 0 0 3.5z"/></g></g></svg>